<svg width="144" height="145" viewBox="0 0 144 145" fill="none" xmlns="http://www.w3.org/2000/svg">
    <g clip-path="url(#clip0_401_2017)">
        <path d="M84 48.3333H28C26.9391 48.3333 25.9217 47.909 25.1716 47.1536C24.4214 46.3983 24 45.3738 24 44.3056V28.1944C24 27.1262 24.4214 26.1017 25.1716 25.3464C25.9217 24.591 26.9391 24.1667 28 24.1667H84C85.0609 24.1667 86.0783 24.591 86.8284 25.3464C87.5786 26.1017 88 27.1262 88 28.1944V44.3056C88 45.3738 87.5786 46.3983 86.8284 47.1536C86.0783 47.909 85.0609 48.3333 84 48.3333ZM32 40.2778H80V31.9806H32V40.2778Z" fill="white"/>
        <path d="M84 56.7111H28C26.9391 56.7111 25.9217 57.1355 25.1716 57.8908C24.4214 58.6462 24 59.6707 24 60.7389V76.5278C24 77.596 24.4214 78.6205 25.1716 79.3759C25.9217 80.1312 26.9391 80.5556 28 80.5556H73.44L88 65.6528V60.7389C88 59.6707 87.5786 58.6462 86.8284 57.8908C86.0783 57.1355 85.0609 56.7111 84 56.7111ZM80 72.5H32V64.4445H80V72.5Z" fill="white"/>
        <path d="M44.24 126.915V126.674L45.52 121.075H16V16.1111H96V57.3958L104 49.7833V12.0833C104 11.0151 103.579 9.99061 102.828 9.23525C102.078 8.4799 101.061 8.05554 100 8.05554H12C10.9391 8.05554 9.92172 8.4799 9.17157 9.23525C8.42143 9.99061 8 11.0151 8 12.0833V124.861C8 125.929 8.42143 126.954 9.17157 127.709C9.92172 128.465 10.9391 128.889 12 128.889H44C44.0324 128.226 44.1126 127.566 44.24 126.915Z" fill="white"/>
        <path d="M87.9999 77.2125L84.8799 80.3944C85.6539 80.2338 86.3634 79.8458 86.9187 79.2795C87.474 78.7132 87.8502 77.9939 87.9999 77.2125Z" fill="white"/>
        <path d="M24 108.508C24 109.577 24.4214 110.601 25.1716 111.356C25.9217 112.112 26.9391 112.536 28 112.536H47.36L48.56 107.3L49.08 105.085V104.883H32V96.6667H57.36L65.36 88.6111H28C26.9391 88.6111 25.9217 89.0355 25.1716 89.7908C24.4214 90.5462 24 91.5707 24 92.6389V108.508Z" fill="white"/>
        <path d="M133.96 67.1431L120.48 53.5695C119.882 52.9654 119.171 52.4862 118.388 52.1592C117.606 51.8322 116.767 51.6638 115.92 51.6638C115.073 51.6638 114.234 51.8322 113.451 52.1592C112.669 52.4862 111.958 52.9654 111.36 53.5695L56.5199 109.113L51.9999 128.486C51.8307 129.322 51.8269 130.183 51.9887 131.02C52.1506 131.858 52.4749 132.655 52.943 133.365C53.4112 134.076 54.0141 134.687 54.7171 135.163C55.4201 135.639 56.2095 135.971 57.0399 136.139C57.4523 136.179 57.8676 136.179 58.2799 136.139C58.7703 136.216 59.2696 136.216 59.7599 136.139L79.1599 131.829L133.96 76.5278C134.559 75.9288 135.034 75.2166 135.358 74.432C135.682 73.6474 135.849 72.806 135.849 71.9563C135.849 71.1065 135.682 70.2651 135.358 69.4805C135.034 68.6959 134.559 67.9837 133.96 67.3847V67.1431ZM75.0799 124.499L60.4399 127.761L63.9999 113.14L105.12 71.2917L116.4 82.65L75.0799 124.499ZM120.92 78.0986L109.64 66.7403L116 60.4167L127.36 71.8556L120.92 78.0986Z" fill="white"/>
    </g>
    <defs>
        <clipPath id="clip0_401_2017">
            <rect width="144" height="145" fill="white"/>
        </clipPath>
    </defs>
</svg>
