<svg width="144" height="145" viewBox="0 0 144 145" fill="none" xmlns="http://www.w3.org/2000/svg">
    <g clip-path="url(#clip0_406_2053)">
        <path d="M100 23.9809C100.009 27.9133 98.3792 31.6962 95.4514 34.5355C88.7386 41.0037 82.2265 47.7479 75.2662 53.9785C73.6684 55.384 71.1356 55.3329 69.6094 53.8635L49.5479 34.5381C43.484 28.696 43.484 19.2658 49.5479 13.4263C50.981 12.0284 52.7047 10.9155 54.6145 10.1551C56.5243 9.39465 58.5803 9.00256 60.658 9.00256C62.7357 9.00256 64.7917 9.39465 66.7015 10.1551C68.6113 10.9155 70.335 12.0284 71.7681 13.4263L72.4996 14.1265L73.2284 13.4263C74.6633 12.0303 76.3873 10.9185 78.2966 10.1578C80.2059 9.39712 82.2611 9.00328 84.3385 9C88.5186 9 92.5144 10.5947 95.4487 13.4263C98.3774 16.2652 100.009 20.0481 100 23.9809Z" stroke="white" stroke-width="7" stroke-linejoin="round"/>
        <path d="M48.7219 130.332V125.679C48.7219 119.51 51.1558 113.593 55.4882 109.23C59.8206 104.868 65.6966 102.417 71.8235 102.417M71.8235 102.417C77.9505 102.417 83.8264 104.868 88.1588 109.23C92.4912 113.593 94.9251 119.51 94.9251 125.679V130.332M71.8235 102.417C75.4997 102.417 79.0253 100.947 81.6247 98.3292C84.2241 95.7117 85.6845 92.1616 85.6845 88.4599C85.6845 84.7582 84.2241 81.2081 81.6247 78.5907C79.0253 75.9732 75.4997 74.5027 71.8235 74.5027C68.1474 74.5027 64.6218 75.9732 62.0223 78.5907C59.4229 81.2081 57.9626 84.7582 57.9626 88.4599C57.9626 92.1616 59.4229 95.7117 62.0223 98.3292C64.6218 100.947 68.1474 102.417 71.8235 102.417ZM21 130.332V125.679C21 121.977 22.4603 118.427 25.0598 115.81C27.6592 113.192 31.1848 111.722 34.861 111.722M34.861 111.722C37.3117 111.722 39.6621 110.742 41.3951 108.997C43.128 107.252 44.1016 104.885 44.1016 102.417C44.1016 99.9493 43.128 97.5826 41.3951 95.8376C39.6621 94.0926 37.3117 93.1123 34.861 93.1123C32.4102 93.1123 30.0598 94.0926 28.3268 95.8376C26.5939 97.5826 25.6203 99.9493 25.6203 102.417C25.6203 104.885 26.5939 107.252 28.3268 108.997C30.0598 110.742 32.4102 111.722 34.861 111.722ZM122.647 130.332V125.679C122.647 121.977 121.187 118.427 118.587 115.81C115.988 113.192 112.462 111.722 108.786 111.722M108.786 111.722C111.237 111.722 113.587 110.742 115.32 108.997C117.053 107.252 118.027 104.885 118.027 102.417C118.027 99.9493 117.053 97.5826 115.32 95.8376C113.587 94.0926 111.237 93.1123 108.786 93.1123C106.335 93.1123 103.985 94.0926 102.252 95.8376C100.519 97.5826 99.5455 99.9493 99.5455 102.417C99.5455 104.885 100.519 107.252 102.252 108.997C103.985 110.742 106.335 111.722 108.786 111.722Z" stroke="white" stroke-width="7" stroke-linecap="round" stroke-linejoin="round"/>
    </g>
    <defs>
        <clipPath id="clip0_406_2053">
            <rect width="144" height="145" fill="white"/>
        </clipPath>
    </defs>
</svg>
